# xmcd
#
# Track frame offsets:
#	150
#	20475
#	40800
#	61122
#	81522
#	101847
#	122172
#	142497
#	162822
#	183147
#	203469
#	223794
#	244119
#	264444
#	284769
#	305094
#
# Disc length: 4336 seconds
#
# Revision: 4
# Processed by: cddbd v1.5.1PL2 Copyright (c) Steve Scherf et al.
# Submitted via: audiograbber 1.83.01
#
DISCID=f110ee10
DTITLE=Various Artist - Les Concerts
DYEAR=2001
DGENRE=New Age
TTITLE0=Jean C Roché - Concerts de l'aube
TTITLE1=Jean C Roché - Concerts de la nature
TTITLE2=Jean C Roché - Concerts des sous-bois
TTITLE3=Jean C Roché - Concerts au fil de l'eau
TTITLE4=Jean C Roché - Concerts des forêts tropicales
TTITLE5=Jean C Roché - Concerts de la jungle
TTITLE6=Jean C Roché - Concerts du printemps
TTITLE7=Jean C Roché - Concerts de l'été
TTITLE8=Jean C Roché - Concerts de l'automne
TTITLE9=Jean C Roché - Concerts de l'hiver
TTITLE10=Jean C Roché - Concerts des garrigues
TTITLE11=Jean C Roché - Concerts d'oiseaux marins
TTITLE12=Ivan Stacke - Rivages et ressacs
TTITLE13=Jean C Roché - Concerts sous-marins
TTITLE14=Jean C Roché - Concerts du crépuscule
TTITLE15=Jean C Roché - Concerts de la nuit
EXTD=
EXTT0=
EXTT1=
EXTT2=
EXTT3=
EXTT4=
EXTT5=
EXTT6=
EXTT7=
EXTT8=
EXTT9=
EXTT10=
EXTT11=
EXTT12=
EXTT13=
EXTT14=
EXTT15=
PLAYORDER=
